<svg width="21" height="21" viewBox="0 0 21 21" fill="none" xmlns="http://www.w3.org/2000/svg">
<path d="M17.0886 0.0156343L2.948 0.00268324C1.3327 0.00120382 0.0171067 1.31439 0.0156273 2.92969L0.00267623 17.0703C0.00119682 18.6856 1.31438 20.0012 2.92968 20.0027L8.82811 20.0081L8.83459 12.9378L6.49084 12.9356L6.49406 9.42L8.83781 9.42214L8.83999 7.03933C8.84177 5.1007 10.4202 3.52515 12.3588 3.52693L15.9135 3.53018L15.9103 7.04581L12.3556 7.04255L12.3534 9.42536L15.9081 9.42862L15.319 12.9437L12.3502 12.941L12.3437 20.0113L17.0703 20.0156C18.6856 20.0171 20.0012 18.7039 20.0027 17.0886L20.0156 2.948C20.0171 1.33271 18.7039 0.0171137 17.0886 0.0156343Z" fill="white"/>
</svg>
