<svg width="21" height="20" viewBox="0 0 21 20" fill="none" xmlns="http://www.w3.org/2000/svg">
<path d="M10.4596 0.500068C4.93467 0.524175 0.478748 4.90533 0.50222 10.2847C0.521003 14.5893 3.4019 18.2272 7.37998 19.4969C7.88038 19.5864 8.06239 19.2841 8.06126 19.0255C8.06025 18.7942 8.04925 18.1813 8.04154 17.3693C5.26246 17.9688 4.66753 16.0772 4.66753 16.0772C4.20763 14.9549 3.54883 14.6571 3.54883 14.6571C2.64037 14.0572 3.61625 14.0653 3.61625 14.0653C4.6207 14.1286 5.15228 15.0623 5.15228 15.0623C6.05043 16.5478 7.49771 16.1111 8.06829 15.8599C8.15553 15.2293 8.41116 14.7994 8.69593 14.5545C6.47405 14.3205 4.13625 13.493 4.11997 9.76085C4.11533 8.69771 4.49903 7.82699 5.13772 7.14269C5.02415 6.89701 4.68233 5.90803 5.21397 4.56415C5.21397 4.56415 6.05032 4.29946 7.9683 5.55087C8.76735 5.33095 9.61687 5.21985 10.4668 5.21118C11.3169 5.21243 12.1673 5.31611 12.9683 5.52905C14.8627 4.26101 15.7014 4.51839 15.7014 4.51839C16.2447 5.85758 15.9115 6.8495 15.8126 7.09611C16.4531 7.77483 16.8444 8.64216 16.849 9.70531C16.8653 13.4474 14.5315 14.2812 12.3075 14.5304C12.6588 14.8213 12.9864 15.4172 12.9904 16.33C12.9961 17.6335 12.9881 18.681 12.9895 18.9974C12.9906 19.2527 13.167 19.5567 13.679 19.457C17.6742 18.1608 20.5208 14.4954 20.502 10.1974C20.4786 4.81807 15.9821 0.475972 10.4596 0.500068Z" fill="white"/>
</svg>
