<svg width="21" height="21" viewBox="0 0 21 21" fill="none" xmlns="http://www.w3.org/2000/svg">
<path d="M13.8872 0.173576L6.38735 0.21681C2.93615 0.236705 0.153585 3.05154 0.173479 6.50273L0.216713 14.0026C0.236608 17.4538 3.05145 20.2364 6.50264 20.2165L14.0025 20.1732C17.4537 20.1533 20.2363 17.3385 20.2164 13.8873L20.1731 6.38744C20.1533 2.93625 17.3384 0.153681 13.8872 0.173576ZM18.3414 13.8981C18.3553 16.3106 16.4042 18.2844 13.9917 18.2983L6.49183 18.3415C4.07937 18.3554 2.10559 16.4043 2.09168 13.9918L2.04845 6.49193C2.03454 4.07947 3.9857 2.10569 6.39816 2.09178L13.898 2.04855C16.3105 2.03464 18.2843 3.98579 18.2982 6.39825L18.3414 13.8981Z" fill="white"/>
<path d="M10.209 5.19504C7.44773 5.18749 5.20286 7.4201 5.1953 10.1813C5.18775 12.9426 7.42037 15.1875 10.1816 15.195C12.9428 15.2026 15.1877 12.9699 15.1953 10.2087C15.2028 7.44747 12.9702 5.2026 10.209 5.19504ZM10.1867 13.32C8.46424 13.3153 7.06558 11.909 7.0703 10.1865C7.07501 8.46273 8.48134 7.06532 10.2038 7.07004C11.9263 7.07475 13.325 8.47983 13.3203 10.2036C13.3156 11.9261 11.9092 13.3247 10.1867 13.32Z" fill="white"/>
<path d="M15.5428 5.45536C15.9108 5.45323 16.2073 5.15323 16.2052 4.78528C16.2031 4.41733 15.9031 4.12076 15.5351 4.12288C15.1672 4.125 14.8706 4.42501 14.8727 4.79296C14.8749 5.16091 15.1749 5.45748 15.5428 5.45536Z" fill="white"/>
</svg>
